<svg width="50" height="50" viewBox="0 0 50 50" fill="none" xmlns="http://www.w3.org/2000/svg">
<line x1="24.5" y1="48" x2="24.5" y2="43" stroke="black"/>
<path d="M24.6415 43.9966C20.6299 43.9209 16.7451 42.5772 13.5441 40.1579C10.343 37.7387 7.99003 34.3681 6.82233 30.5294L24.9999 25L24.6415 43.9966Z" fill="#9D0000"/>
<path d="M42.9561 31.2111C41.6444 35.0031 39.1659 38.2825 35.8759 40.5793C32.5859 42.876 28.6532 44.0723 24.6415 43.9966L24.9999 25L42.9561 31.2111Z" fill="#F38251"/>
<path d="M6.82233 30.5294C5.65464 26.6907 5.73218 22.5808 7.04384 18.7889C8.3555 14.9969 10.834 11.7175 14.124 9.42076L24.9999 25L6.82233 30.5294Z" fill="#9DCBFF"/>
<path d="M14.124 9.42076C17.414 7.12397 21.3467 5.9277 25.3583 6.00339C29.37 6.07907 33.2548 7.42284 36.4558 9.84208L24.9999 25L14.124 9.42076Z" fill="#020360"/>
<path d="M36.4558 9.84208C39.6569 12.2613 42.0099 15.6319 43.1776 19.4706C44.3453 23.3093 44.2677 27.4192 42.9561 31.2111L24.9999 25L36.4558 9.84208Z" fill="#F3BAC3"/>
</svg>
