<svg width="38" height="42" viewBox="0 0 38 42" fill="none" xmlns="http://www.w3.org/2000/svg">
<path d="M19 42V37" stroke="black"/>
<path d="M0 19C0 21.4951 0.49145 23.9658 1.44629 26.271C2.40113 28.5762 3.80066 30.6707 5.56497 32.435C7.32928 34.1993 9.42383 35.5989 11.729 36.5537C14.0342 37.5086 16.5049 38 19 38L19 19H0Z" fill="#F38251"/>
<path d="M0 19C0 16.5049 0.49145 14.0342 1.44629 11.729C2.40113 9.42383 3.80066 7.32928 5.56497 5.56497C7.32928 3.80066 9.42383 2.40113 11.729 1.44629C14.0342 0.491449 16.5049 -1.09065e-07 19 0L19 19H0Z" fill="#020360"/>
<path d="M38 19C38 16.5049 37.5086 14.0342 36.5537 11.729C35.5989 9.42383 34.1993 7.32928 32.435 5.56497C30.6707 3.80066 28.5762 2.40113 26.271 1.44629C23.9658 0.491449 21.4951 -1.09065e-07 19 0L19 19H38Z" fill="#9DCBFF"/>
<path d="M38 19C38 21.4951 37.5086 23.9658 36.5537 26.271C35.5989 28.5762 34.1993 30.6707 32.435 32.435C30.6707 34.1993 28.5762 35.5989 26.271 36.5537C23.9658 37.5086 21.4951 38 19 38L19 19H38Z" fill="#9D0000"/>
</svg>
