<svg width="39" height="43" viewBox="0 0 39 43" fill="none" xmlns="http://www.w3.org/2000/svg">
<line x1="19.5" y1="43" x2="19.5" y2="38" stroke="black"/>
<path d="M10.4949 3.54045C13.3892 1.86942 16.6731 0.991387 20.0151 0.994945C23.3572 0.998503 26.6392 1.88353 29.5299 3.56071C32.4207 5.2379 34.8179 7.6479 36.4796 10.5475C38.1414 13.4472 39.009 16.7338 38.9947 20.0758L19.9949 19.9949L10.4949 3.54045Z" fill="#9DCBFF"/>
<path d="M39 20C39 23.3349 38.1223 26.611 36.455 29.4991C34.7877 32.3873 32.3896 34.7858 29.5017 36.4535C26.6138 38.1212 23.3378 38.9995 20.003 39C16.6681 39.0005 13.3919 38.1233 10.5034 36.4565L20 20H39Z" fill="#F38251"/>
<path d="M10.482 36.4365C7.59392 34.769 5.19559 32.3708 3.52801 29.4829C1.86043 26.5949 0.982344 23.3188 0.981995 19.984C0.981645 16.6491 1.85904 13.3729 3.52602 10.4846C5.19299 7.59625 7.59082 5.19754 10.4785 3.5295L19.982 19.982L10.482 36.4365Z" fill="#9D0000"/>
</svg>
