<svg width="38" height="42" viewBox="0 0 38 42" fill="none" xmlns="http://www.w3.org/2000/svg">
<path d="M19 42V37" stroke="black"/>
<path d="M19 0C21.4951 0 23.9658 0.49145 26.271 1.44629C28.5762 2.40113 30.6707 3.80066 32.435 5.56497C34.1993 7.32928 35.5989 9.42383 36.5537 11.729C37.5086 14.0342 38 16.5049 38 19C38 21.4951 37.5086 23.9658 36.5537 26.271C35.5989 28.5762 34.1993 30.6707 32.435 32.435C30.6707 34.1993 28.5762 35.5989 26.271 36.5537C23.9658 37.5086 21.4951 38 19 38L19 19L19 0Z" fill="#F38251"/>
<path d="M19 0C16.5049 0 14.0342 0.49145 11.729 1.44629C9.42383 2.40113 7.32928 3.80066 5.56497 5.56497C3.80066 7.32928 2.40113 9.42383 1.44629 11.729C0.491449 14.0342 -1.09065e-07 16.5049 0 19C1.09065e-07 21.4951 0.49145 23.9658 1.44629 26.271C2.40113 28.5762 3.80066 30.6707 5.56497 32.435C7.32929 34.1993 9.42383 35.5989 11.729 36.5537C14.0342 37.5086 16.5049 38 19 38L19 19L19 0Z" fill="#020360"/>
</svg>
